:FULLY-SPECIFIED
:FORCE-ALL-JOINTS-BE-3DOF
:DEGREES
49
root 8.59402 15.8609 -29.4605 6.66793 -10.1737 -3.18489
lfemur -39.6175 8.41061 -17.7854
ltibia 38.5276 0 0
lfoot -4.1176 6.72528 0
ltoes -2.04233 0 0
rfemur 16.7753 4.35236 21.2172
rtibia 19.5407 0 0
rfoot 3.38911 0.24968 0
rtoes -15.1578 0 0
lowerback -6.77526 0.60235 0.111804
upperback -2.24578 0.718657 3.49461
thorax 1.43742 0.363207 3.60142
lowerneck -21.3193 -4.24734 -12.9247
upperneck 16.9761 -4.98031 14.3885
head 9.59351 -1.60713 6.53381
lclavicle 8.51047e-15 7.15625e-15 0
lhumerus -45.1397 -3.16386 90.0628
lradius 21.1155 0 0
lwrist -4.08485 0 0
lhand 4.04619 -16.4142 0
lfingers 7.12502 0 0
lthumb 29.4598 11.2695 0
rclavicle 8.51047e-15 7.15625e-15 0
rhumerus -47.1264 19.779 -94.7034
rradius 49.2455 0 0
rwrist -25.0408 0 0
rhand -30.4695 -28.7895 0
rfingers 7.12502 0 0
rthumb -3.77081 -58.7359 0
50
root 8.62848 15.8884 -29.317 6.59849 -10.3732 -2.83912
lfemur -38.9533 8.43667 -18.3242
ltibia 38.543 -0 0
lfoot -4.78807 6.71073 0.000946
ltoes -2.1562 0 0
rfemur 15.3958 3.91557 20.4504
rtibia 22.5596 -0 0
rfoot 4.38197 -0.0346558 -0.00678021
rtoes -13.6532 0 0
lowerback -6.60126 0.593793 -0.123281
upperback -2.34367 0.731697 3.39158
thorax 1.23649 0.372034 3.62222
lowerneck -21.385 -4.22559 -12.9031
upperneck 17.1015 -4.95685 14.366
head 9.644 -1.59454 6.53055
lclavicle 8.1274e-15 1.09994e-14 0
lhumerus -45.0099 -2.83627 89.7152
lradius 20.8347 -0 0
lwrist -4.61437 0 0
lhand 3.77114 -16.4945 0.00186769
lfingers 7.12502 0 0
lthumb 29.1973 11.2365 0.00228095
rclavicle 8.1274e-15 1.09994e-14 0
rhumerus -46.8455 19.3912 -94.6407
rradius 47.9581 -0 0
rwrist -24.5238 0 0
rhand -30.2334 -28.2695 -0.00273967
rfingers 7.12502 0 0
rthumb -3.54279 -58.2198 -0.0026366
51
root 8.66294 15.9159 -29.1736 6.57336 -10.5782 -2.57063
lfemur -38.3175 8.5301 -18.7842
ltibia 38.4728 -0 0
lfoot -5.43091 6.67676 0.00183851
ltoes -2.33205 0 0
rfemur 13.9977 3.40946 19.7765
rtibia 25.5149 -0 0
rfoot 5.45976 -0.351193 -0.00955035
rtoes -12.8444 0 0
lowerback -6.47836 0.615054 -0.288779
upperback -2.42437 0.776853 3.28085
thorax 1.08132 0.396855 3.60033
lowerneck -21.4729 -4.21747 -12.8399
upperneck 17.2212 -4.96626 14.3582
head 9.70132 -1.59208 6.52071
lclavicle 7.74432e-15 1.48426e-14 0
lhumerus -44.7924 -2.56321 89.2993
lradius 20.5473 -0 0
lwrist -5.19647 0 0
lhand 3.54312 -16.6639 0.00288948
lfingers 7.12502 0 0
lthumb 28.9796 11.1051 0.00339797
rclavicle 7.74432e-15 1.48426e-14 0
rhumerus -46.3712 18.8627 -94.5431
rradius 46.5151 -0 0
rwrist -23.9352 0 0
rhand -29.99 -27.8781 -0.00320465
rfingers 7.12502 0 0
rthumb -3.30771 -57.8321 -0.003089
52
root 8.6974 15.9434 -29.0301 6.57135 -10.7832 -2.35109
lfemur -37.6877 8.65745 -19.1906
ltibia 38.3276 -0 0
lfoot -6.04192 6.6358 0.00222885
ltoes -2.54273 0 0
rfemur 12.593 2.86997 19.1803
rtibia 28.4008 -0 0
rfoot 6.55838 -0.724618 -0.00929848
rtoes -12.4607 0 0
lowerback -6.38719 0.654253 -0.410534
upperback -2.48883 0.841062 3.16778
thorax 0.960338 0.431021 3.55427
lowerneck -21.5747 -4.21854 -12.7502
upperneck 17.3323 -4.99542 14.353
head 9.7608 -1.59624 6.50414
lclavicle 7.36124e-15 1.86858e-14 0
lhumerus -44.5108 -2.35313 88.8647
lradius 20.2742 -0 0
lwrist -5.76744 0 0
lhand 3.35802 -16.8811 0.00290009
lfingers 7.12502 0 0
lthumb 28.8028 10.9178 0.00329011
rclavicle 7.36124e-15 1.86858e-14 0
rhumerus -45.7894 18.249 -94.4144
rradius 45.0169 -0 0
rwrist -23.3121 0 0
rhand -29.7553 -27.5792 -0.00216403
rfingers 7.12502 0 0
rthumb -3.08107 -57.5365 -0.0020917
53
root 8.73186 15.9709 -28.8866 6.57111 -10.9828 -2.15197
lfemur -37.0412 8.78616 -19.5696
ltibia 38.1185 -0 0
lfoot -6.61689 6.60031 0.00195689
ltoes -2.76108 0 0
rfemur 11.1933 2.33255 18.6447
rtibia 31.2119 -0 0
rfoot 7.6137 -1.17967 -0.00681084
rtoes -12.2312 0 0
lowerback -6.30831 0.699785 -0.514443
upperback -2.53791 0.911273 3.05777
thorax 0.861992 0.468004 3.50259
lowerneck -21.6819 -4.22439 -12.6491
upperneck 17.4321 -5.03115 14.3385
head 9.81778 -1.60354 6.4807
lclavicle 6.97817e-15 2.25289e-14 0
lhumerus -44.1881 -2.21518 88.4604
lradius 20.0364 -0 0
lwrist -6.26355 0 0
lhand 3.21174 -17.1049 0.00211417
lfingers 7.12502 0 0
lthumb 28.663 10.717 0.00228969
rclavicle 6.97817e-15 2.25289e-14 0
rhumerus -45.1851 17.6059 -94.2562
rradius 43.564 -0 0
rwrist -22.6916 0 0
rhand -29.5454 -27.3369 -0.000526368
rfingers 7.12502 0 0
rthumb -2.87837 -57.2969 -0.000516289
54
root 8.76632 15.9984 -28.7432 6.55107 -11.1713 -1.94457
lfemur -36.3549 8.88458 -19.9475
ltibia 37.8562 -0 0
lfoot -7.15163 6.58274 0.00111454
ltoes -2.95995 0 0
rfemur 9.80961 1.83196 18.1508
rtibia 33.9426 -0 0
rfoot 8.56166 -1.74115 -0.00308165
rtoes -11.8851 0 0
lowerback -6.22225 0.74022 -0.626418
upperback -2.5724 0.974438 2.95627
thorax 0.77476 0.501341 3.46384
lowerneck -21.7861 -4.23068 -12.5519
upperneck 17.5177 -5.06022 14.3024
head 9.86759 -1.61048 6.45024
lclavicle 6.5951e-15 2.63721e-14 0
lhumerus -43.8469 -2.1594 88.1352
lradius 19.8548 -0 0
lwrist -6.62106 0 0
lhand 3.1002 -17.2941 0.000969567
lfingers 7.12502 0 0
lthumb 28.5563 10.5452 0.000966426
rclavicle 6.5951e-15 2.63721e-14 0
rhumerus -44.6423 16.9894 -94.0668
rradius 42.2567 -0 0
rwrist -22.1109 0 0
rhand -29.3764 -27.1151 0.000608744
rfingers 7.12502 0 0
rthumb -2.71515 -57.0773 0.000579418
55
root 8.80078 16.0259 -28.5997 6.48951 -11.3426 -1.70002
lfemur -35.6057 8.92197 -20.3517
ltibia 37.5516 0 0
lfoot -7.64192 6.59554 0
ltoes -3.11217 0 0
rfemur 8.45266 1.40226 17.6778
rtibia 36.5873 0 0
rfoot 9.33818 -2.43392 0
rtoes -11.1516 0 0
lowerback -6.10952 0.764287 -0.77238
upperback -2.59306 1.01751 2.86873
thorax 0.687148 0.524604 3.45661
lowerneck -21.8789 -4.23317 -12.4737
upperneck 17.5864 -5.06941 14.233
head 9.90556 -1.61359 6.41265
lclavicle 6.21202e-15 3.02153e-14 0
lhumerus -43.5098 -2.19675 87.9375
lradius 19.7504 0 0
lwrist -6.77627 0 0
lhand 3.01927 -17.4074 0
lfingers 7.12502 0 0
lthumb 28.479 10.4447 0
rclavicle 6.21202e-15 3.02153e-14 0
rhumerus -44.2434 16.456 -93.8417
rradius 41.1957 0 0
rwrist -21.6071 0 0
rhand -29.2643 -26.8777 0
rfingers 7.12502 0 0
rthumb -2.60694 -56.8415 0
56
root 8.83343 16.0547 -28.4688 6.37579 -11.5103 -1.4046
lfemur -34.7738 8.90077 -20.7976
ltibia 37.1891 -0 0
lfoot -8.08992 6.6394 -0.000917055
ltoes -3.21125 0 0
rfemur 7.11851 1.05253 17.2034
rtibia 39.1744 -0 0
rfoot 10.0207 -3.35365 -0.00666651
rtoes -9.93607 0 0
lowerback -5.96023 0.778142 -0.962252
upperback -2.59595 1.04886 2.79383
thorax 0.596795 0.542202 3.48549
lowerneck -21.9629 -4.23485 -12.4171
upperneck 17.6341 -5.05904 14.1212
head 9.93055 -1.61411 6.36475
lclavicle 8.4939e-15 2.19989e-14 0
lhumerus -43.1808 -2.35456 87.8963
lradius 19.739 -0 0
lwrist -6.672 0 0
lhand 3.01835 -17.432 -0.000439265
lfingers 7.12502 0 0
lthumb 28.4782 10.4207 -0.000253163
rclavicle 8.4939e-15 2.19989e-14 0
rhumerus -43.9985 15.9949 -93.5518
rradius 40.3943 -0 0
rwrist -21.1643 0 0
rhand -29.2232 -26.6262 -0.00154559
rfingers 7.12502 0 0
rthumb -2.5673 -56.5906 -0.00148275
